<?xml version="1.0" encoding="UTF-8" standalone="no"?>
<!-- Created with Inkscape (http://www.inkscape.org/) -->

<svg
   version="1.1"
   id="svg48968"
   width="800"
   height="800"
   viewBox="0 0 800 800"
   sodipodi:docname="inclined-tree-pdv.svg"
   inkscape:version="1.2 (dc2aedaf03, 2022-05-15)"
   xmlns:inkscape="http://www.inkscape.org/namespaces/inkscape"
   xmlns:sodipodi="http://sodipodi.sourceforge.net/DTD/sodipodi-0.dtd"
   xmlns="http://www.w3.org/2000/svg"
   xmlns:svg="http://www.w3.org/2000/svg">
  <defs
     id="defs48972" />
  <sodipodi:namedview
     id="namedview48970"
     pagecolor="#ffffff"
     bordercolor="#000000"
     borderopacity="0.25"
     inkscape:showpageshadow="2"
     inkscape:pageopacity="0.0"
     inkscape:pagecheckerboard="0"
     inkscape:deskcolor="#d1d1d1"
     showgrid="false"
     inkscape:zoom="1.04625"
     inkscape:cx="400"
     inkscape:cy="400.4779"
     inkscape:window-width="1920"
     inkscape:window-height="1017"
     inkscape:window-x="-8"
     inkscape:window-y="-8"
     inkscape:window-maximized="1"
     inkscape:current-layer="g48976">
    <inkscape:page
       x="0"
       y="0"
       id="page48974"
       width="800"
       height="800" />
  </sodipodi:namedview>
  <g
     id="g48976"
     inkscape:groupmode="layer"
     inkscape:label="Page 1"
     transform="matrix(1.3333333,0,0,-1.3333333,0,800)">
    <g
       id="g48978"
       transform="translate(294.2295,87.293)">
      <path
         d="m 0,0 -29.912,44.982 14.385,11.188 8.219,26.03 23.063,29.912 -0.457,32.423 26.257,8.906 3.884,28.769 26.485,21.921 3.427,19.179 52.514,16.44 9.592,23.746 0.456,31.511 H 121.93 l -0.914,-25.574 -9.132,-15.07 -34.252,-6.392 5.937,17.353 -3.196,32.423 -8.221,0.457 -0.456,-30.142 -20.549,-27.855 V 226.05 l -16.442,-11.873 -6.391,5.822 -10.047,15.184 7.762,26.944 -9.589,15.983 v 17.81 l -9.589,0.457 -5.482,-20.55 5.936,-14.614 -15.525,-28.77 5.937,-21.464 -34.25,5.938 -10.733,15.754 6.166,28.087 -13.471,14.842 0.226,36.304 -9.588,-1.827 -2.283,-37.903 9.588,-15.528 -12.329,-26.942 15.07,-26.944 30.139,-12.33 6.851,-13.701 -19.181,-12.33 -6.392,-21.462 -19.866,-6.85 -6.507,-12.787 -23.177,-7.535 -5.708,-29.911 -16.896,-5.252 -10.504,-9.59 -13.7,-7.078 -8.904,-25.345 -19.865,-17.583 V -6.677 Z"
         style="fill:#9aa674;fill-opacity:1;fill-rule:evenodd;stroke:none"
         id="path48980" />
    </g>
    <g
       id="g48982"
       transform="translate(374.6025,385.0396)">
      <path
         d="m 0,0 3.196,-32.422 -5.937,-17.354 10.232,1.909 -11.132,-5.102 -9.132,-7.079 -0.686,9.59 11.417,18.266 -0.229,18.724 z m -65.989,-1.729 2.056,-0.097 v -17.81 l 9.589,-15.984 -7.762,-26.943 10.047,-15.184 6.391,-5.823 -9.802,-11.414 3.196,-6.849 -20.778,1.141 -5.935,-7.307 -13.7,5.709 7.534,7.306 h 15.754 l 7.308,10.961 -7.079,17.125 -0.684,16.44 7.305,15.069 -6.165,16.212 z m -68.729,15.886 -0.226,-36.304 13.471,-14.842 -6.166,-28.087 10.733,-15.754 34.25,-5.937 -16.024,-4.392 -18.952,2.738 -16.896,18.496 -2.512,11.19 5.938,9.818 2.283,13.471 -8.221,7.079 -3.425,7.534 z m 54.345,-311.904 -29.912,44.983 14.385,11.187 8.219,26.031 23.063,29.912 -0.457,32.423 26.257,8.906 3.884,28.768 26.485,21.921 3.427,19.179 52.514,16.44 9.592,23.747 0.456,31.51 -6.156,-27.857 -6.164,-13.471 -1.371,-10.046 -15.069,-2.283 -18.723,-7.536 -21.464,-2.51 -4.338,-25.346 -2.283,5.023 -22.835,-13.927 7.993,-4.568 -8.221,-10.961 -2.283,-24.431 -18.494,10.047 -8.906,-9.818 9.133,-3.425 -16.668,-7.992 -9.817,-32.196 -3.198,8.451 -6.623,7.762 -23.06,-25.345 -13.244,-36.305 8.449,-1.371 24.203,28.542 1.598,-11.188 -13.929,-24.204 -43.383,-6.849 v -17.582 l -9.134,-36.304 24.686,-1.762 2.487,2.218 2.51,16.895 7.992,8.449 9.591,-12.101 10.732,-12.787 7.406,-1.053 z"
         style="fill:#748050;fill-opacity:1;fill-rule:evenodd;stroke:none"
         id="path48984" />
    </g>
    <g
       id="g48986"
       transform="translate(237.6011,343.939)">
      <path
         d="m 0,0 -7.572,-26.083 9.82,-18.722 18.494,-8.678 14.156,-6.621 6.623,-18.038 -2.969,-7.308 -15.525,-9.36 -4.796,-23.976 -14.614,-10.96 -18.952,-24.204 -6.621,-26.943 -18.723,-9.361 -2.74,-14.157 -24.662,-1.827 -0.227,-26.487 -25.709,-29.922 -16.952,-0.676 v 27.683 l 19.865,17.583 8.904,25.345 13.7,7.078 10.504,9.59 16.896,5.252 5.708,29.911 23.177,7.535 6.507,12.787 19.866,6.851 6.392,21.461 19.181,12.33 -6.85,13.701 -30.14,12.33 -15.07,26.944 z m 47.227,-84.079 -9.816,-8.677 -2.056,-10.504 -7.536,-3.425 -5.479,-14.385 12.329,11.646 11.646,4.337 v 11.417 z"
         style="fill:#bdc98f;fill-opacity:1;fill-rule:evenodd;stroke:none"
         id="path48988" />
    </g>
    <g
       id="g48990"
       transform="translate(262.019,96.8086)">
      <path
         d="m 0,0 8.096,7.194 4.947,-10.343 8.096,6.746 6.297,-8.096 9.555,14.28 6.634,-14.73 8.547,5.847 4.046,-5.397 10.345,4.947 4.048,-5.846 5.396,7.645 7.197,-8.545 6.464,18.385 4.78,-15.236 6.746,8.995 5.847,-11.693 6.296,5.396 2.699,-4.947 9.894,10.345 5.398,-10.794 8.995,5.396 3.597,-6.297 4.948,4.048 8.095,-13.492 h -352.604 l 7.196,23.836 2.698,-6.746 6.297,10.794 14.729,-12.03 8.658,7.083 4.047,-10.793 12.144,11.692 3.149,-10.344 8.095,16.191 3.598,-10.794 5.284,7.196 11.243,-14.617 3.711,10.57 6.747,-8.096 9.107,12.256 5.284,-11.357 7.308,8.995 7.085,-10.344 4.948,5.397 7.194,-7.196 13.043,13.043 6.746,-10.343 4.947,5.396 7.421,-10.232 7.873,8.882 2.248,-5.847 9.445,12.819 z"
         style="fill:#9ac421;fill-opacity:1;fill-rule:evenodd;stroke:none"
         id="path48992" />
    </g>
    <g
       id="g48994"
       transform="translate(288.2583,391.8359)">
      <path
         d="m 0,0 2.74,-11.873 16.252,-5.376 14.801,5.376 7.307,14.157 17.811,-9.134 5.479,-10.959 13.557,-0.206 19.78,-4.361 15.527,8.22 8.219,-9.133 19.832,2.086 16.673,4.477 10.076,-8.847 12.331,12.787 19.179,-2.74 24.203,20.094 -2.74,14.612 5.481,18.268 -13.7,13.243 -11.873,18.724 -17.811,-10.961 h -21.718 l -11.162,13.699 -1.828,30.598 -21.92,8.676 -18.723,17.353 -31.053,-5.936 -0.914,-19.18 -28.77,-1.37 -11.871,26.943 8.674,12.331 -16.439,22.376 -23.29,12.787 -23.291,-5.023 -22.833,-1.828 -13.7,-28.77 -17.353,-9.133 4.11,-28.769 -17.354,-11.875 -4.11,-29.682 -15.983,-1.827 -10.046,-12.786 -1.369,-24.203 -14.426,-15.857 7.118,-21.134 16.441,-21.92 24.203,1.826 16.439,13.244 29.227,4.11 19.181,15.526 z"
         style="fill:#9ac421;fill-opacity:1;fill-rule:evenodd;stroke:none"
         id="path48996" />
    </g>
    <g
       id="g48998"
       transform="translate(288.2583,391.8359)">
      <path
         d="m 0,0 2.74,-11.873 16.252,-5.376 14.801,5.376 7.307,14.157 17.811,-9.134 5.479,-10.959 13.557,-0.206 19.78,-4.361 15.527,8.22 8.219,-9.133 19.832,2.086 16.673,4.477 10.076,-8.847 12.331,12.787 19.179,-2.74 24.203,20.094 -2.74,14.612 5.481,18.268 -13.7,13.243 -11.873,18.724 -17.811,-10.961 0.914,-10.049 -20.094,1.37 -8.677,-12.329 -28.313,-3.197 -5.937,-8.677 H 92.246 L 74.894,33.336 51.148,26.485 V 47.949 L 42.927,74.436 47.494,81.742 44.752,94.985 24.203,86.766 22.376,72.608 5.935,64.389 v -13.7 L -9.59,40.642 l -23.291,4.567 -26.029,-5.937 -8.221,15.527 11.417,12.787 4.566,20.093 -10.046,11.873 -0.912,22.833 -10.961,9.592 4.11,-28.769 -17.354,-11.875 -4.11,-29.682 -15.983,-1.827 -10.046,-12.786 -1.369,-24.203 -14.426,-15.857 7.118,-21.134 16.441,-21.92 24.203,1.826 16.439,13.244 29.227,4.11 19.181,15.526 z"
         style="fill:#87b027;fill-opacity:1;fill-rule:evenodd;stroke:none"
         id="path49000" />
    </g>
    <g
       id="g49002"
       transform="translate(288.2583,391.8359)">
      <path
         d="m 0,0 2.74,-11.873 16.252,-5.376 14.801,5.376 7.307,14.157 17.811,-9.134 5.479,-10.959 13.557,-0.206 19.78,-4.361 15.527,8.22 8.219,-9.133 19.832,2.086 16.673,4.477 10.076,-8.847 12.331,12.787 19.179,-2.74 24.203,20.094 -2.74,14.612 5.481,18.268 -13.7,13.243 2.313,-9.259 -4.595,-9.469 2.283,-15.069 -12.787,-6.85 -3.653,-6.394 -22.832,-0.914 -14.615,-6.85 -18.723,2.284 -22.833,0.456 -20.55,5.48 L 82.234,-6.568 57.542,9.13 33.796,13.239 34.71,32.877 24.664,39.27 34.71,58.907 31.968,68.953 23.292,63.017 18.268,49.316 2.743,31.05 -7.761,13.239 -33.335,12.326 -53.167,6.447 -77.632,2.736 -97.724,6.39 l -6.394,26.943 15.984,13.244 11.873,19.636 -10.05,25.12 -4.11,-29.682 -15.983,-1.827 -10.046,-12.786 -1.369,-24.203 -14.426,-15.857 7.118,-21.134 16.441,-21.92 24.203,1.826 16.439,13.244 29.227,4.11 19.181,15.526 z"
         style="fill:#769a2a;fill-opacity:1;fill-rule:evenodd;stroke:none"
         id="path49004" />
    </g>
  </g>
</svg>
